# xmcd
#
# Track frame offsets:
#	180
#	17469
#	31125
#	48493
#	63877
#	80349
#	95650
#	112491
#	125369
#	138027
#	157010
#	173951
#	187487
#	200882
#	218093
#
# Disc length: 3116 seconds
#
# Revision: 5
# Processed by: cddbd v1.5.1PL0 Copyright (c) Steve Scherf et al.
# Submitted via: audiograbber 1.83.01
#
DISCID=da0c2a0f
DTITLE=1996-01 Country Radio - 1996-01 Country Radio
DYEAR=1996
DGENRE=Country
TTITLE0=Travis Tritt - Only You (And You Alone)
TTITLE1=Junior Brown - My Wife Thinks Your Dead
TTITLE2=Alan Jackson - I'll Try
TTITLE3=4 Runner - Ripples
TTITLE4=Alabama - It Works
TTITLE5=Rich Mccready - Hangin' On
TTITLE6=Little Texas - Country Crazy
TTITLE7=Lonestar - No News
TTITLE8=Mandy Barnett - Now That's Alright With Me
TTITLE9=Lee Roy Parnell - Heart's Desire
TTITLE10=Rob Crosby - Lady's Man
TTITLE11=Lorrie Morgan - Standing Tall
TTITLE12=Brett James - Worth The Fall
TTITLE13=Chely Wright - The Love That We Lost
TTITLE14=Baker and Myers - Years From Here
EXTD=
EXTT0=
EXTT1=
EXTT2=
EXTT3=
EXTT4=
EXTT5=
EXTT6=
EXTT7=
EXTT8=
EXTT9=
EXTT10=
EXTT11=
EXTT12=
EXTT13=
EXTT14=
PLAYORDER=
